<svg width="63" height="45" viewBox="0 0 63 45" fill="none" xmlns="http://www.w3.org/2000/svg">
<path d="M37.0938 0C45.3438 0 53.5938 0 62.0938 0C62.0938 1.32 62.0938 2.64 62.0938 4C58.4637 4 54.8338 4 51.0938 4C50.9777 5.23621 50.8617 6.47242 50.7422 7.74609C50.0901 13.5936 48.925 19.3078 47.7188 25.0625C47.5099 26.0996 47.3011 27.1366 47.0859 28.2051C45.8693 34.0547 44.3637 39.4712 42.0938 45C41.1037 45 40.1137 45 39.0938 45C39.4799 36.625 40.5455 28.9973 43.0938 21C42.3577 21.2166 41.6216 21.4331 40.8633 21.6562C39.8875 21.9347 38.9116 22.2131 37.9062 22.5C36.9433 22.7784 35.9804 23.0569 34.9883 23.3438C32.2403 23.9668 29.8978 24.123 27.0938 24C27.7538 24.99 28.4137 25.98 29.0938 27C29.6272 31.6484 29.8456 34.613 26.9062 38.375C21.9297 43.0198 17.3532 43.4348 10.7578 43.3281C5.95773 42.7369 3.46263 40.3689 0.09375 37C-0.03125 33.375 -0.03125 33.375 0.09375 30C1.41375 29.67 2.73375 29.34 4.09375 29C4.36187 30.1137 4.63 31.2275 4.90625 32.375C5.75184 36.2184 5.75184 36.2184 9.09375 38C13.288 38.6048 17.1147 38.2997 21.1562 37.0625C23.5108 34.556 23.3852 33.6629 23.4062 30.3125C23.3259 28.8735 23.2291 27.4349 23.0938 26C22.4067 26.107 21.7196 26.214 21.0117 26.3242C20.1107 26.4441 19.2096 26.564 18.2812 26.6875C17.3879 26.8151 16.4946 26.9427 15.5742 27.0742C13.0938 27 13.0938 27 11.2695 25.5195C10.8815 25.0181 10.4935 24.5166 10.0938 24C10.4238 23.01 10.7537 22.02 11.0938 21C11.8414 20.9858 12.5891 20.9716 13.3594 20.957C19.5089 20.7742 19.5089 20.7742 24.7188 17.875C26.3218 14.5232 26.8802 11.7011 27.0938 8C25.93 6.61857 25.93 6.61857 22.7188 6.75C19.1955 6.66853 19.1955 6.66853 17.2188 8.375C16.0289 10.0118 16.0289 10.0118 15.0938 12C14.1037 12 13.1137 12 12.0938 12C11.7812 9.25 11.7812 9.25 12.0938 6C15.2231 2.38167 18.4576 1.21935 23.0938 0.824219C26.4961 1.12325 28.5642 2.84066 31.0938 5C32.6259 8.0643 32.3231 10.6166 32.0938 14C30.5781 16.7305 30.5781 16.7305 29.0938 19C29.9136 18.795 30.7334 18.5901 31.5781 18.3789C38.3359 16.6895 38.3359 16.6895 45.0938 15C45.4238 11.37 45.7537 7.74 46.0938 4C43.1237 4 40.1537 4 37.0938 4C37.0938 2.68 37.0938 1.36 37.0938 0Z" fill="black"/>
</svg>
